# xmcd CD database file
#
# Track frame offsets:
#	150
#	8444
#	22979
#	33030
#	45648
#	57043
#	66270
#	82558
#	94131
#	109008
#
# Disc length: 1631 seconds
#
# Revision: 0
# Processed by: cddbd v1.5.2PL0 Copyright (c) Steve Scherf et al.
# Submitted via: CDex 1.70beta2
#
DISCID=61065d0a
DTITLE=Kelly, Frank [CDN-cty-OVM-05) - Something For Everybody
DYEAR=2005
DGENRE=Country
TTITLE0=A-Poor Little Doll
TTITLE1=B-Mother
TTITLE2=C-We All Get Lucky Sometime
TTITLE3=D-I Want To Dance With You
TTITLE4=E-God Bless Texas
TTITLE5=F-Cry,Cry, Cry
TTITLE6=G-That Just About Does It-Don't It
TTITLE7=H-Wrong
TTITLE8=I-I Had A Beautiful Time
TTITLE9=J-She's Mine
EXTD=YEAR: 2005
EXTT0=
EXTT1=
EXTT2=
EXTT3=
EXTT4=
EXTT5=
EXTT6=
EXTT7=
EXTT8=
EXTT9=
PLAYORDER=
